<svg width="351" height="351" viewBox="0 0 351 351" fill="none" xmlns="http://www.w3.org/2000/svg">
    <style>
        @media (prefers-color-scheme: dark) {
            path[fill="#062D57"] { fill: #FFF; }
        }
    </style>

    <path d="M142.572 101.311V117.795C150.456 119.193 156.716 122.814 161.232 128.705H161.231C166.032 134.854 168.353 143.022 168.353 153.055V154.555H150.997V153.055C150.997 146.643 149.513 141.617 146.683 137.843L146.676 137.833C143.955 134.146 140.172 132.29 135.139 132.29C129.628 132.29 125.766 133.734 123.262 136.365L123.253 136.374C120.709 139.005 119.354 142.694 119.354 147.636C119.354 150.373 119.874 152.698 120.865 154.653L121.071 155.039L121.075 155.049C122.105 156.94 124.026 158.846 127.003 160.721C129.97 162.59 133.902 164.375 138.835 166.06C145.09 168.054 150.416 170.388 154.79 173.078L155.654 173.621L155.66 173.625C160.179 176.569 163.611 180.111 165.897 184.266C168.193 188.441 169.305 193.414 169.305 199.125C169.305 207.843 166.683 214.945 161.317 220.259C156.256 225.27 149.453 228.28 141.033 229.387V243.545H126.608V229.386C121.318 228.684 116.605 227.121 112.493 224.669C107.89 222.031 104.322 218.276 101.802 213.441C99.2649 208.574 98.0895 202.648 98.1897 195.734L98.1936 195.456L98.2971 195.199L98.4436 194.833L98.8206 193.889H115.252V195.389C115.252 199.908 116.002 203.482 117.403 206.198L117.692 206.73L117.696 206.738L117.7 206.746C119.265 209.562 121.378 211.576 124.046 212.849L124.568 213.08C127.196 214.195 130.127 214.763 133.381 214.763C137.476 214.763 140.834 214.103 143.513 212.853L143.521 212.85C146.372 211.538 148.433 209.767 149.793 207.565C151.156 205.359 151.876 202.618 151.876 199.271C151.876 196.581 151.275 194.206 150.099 192.11C147.697 188.012 142.118 184.283 132.839 181.14C126.264 179.111 120.652 176.648 116.029 173.733L116.022 173.729C111.401 170.784 107.869 167.194 105.486 162.944L105.482 162.938C103.091 158.624 101.925 153.579 101.925 147.855C101.925 139.493 104.342 132.543 109.276 127.141C113.939 122.037 120.219 118.913 127.999 117.696V101.311H142.572Z" fill="#008000" stroke="#008000" stroke-width="3"/>
    <path d="M175.684 39.8104C258.526 39.8104 325.684 106.968 325.684 189.81C325.684 272.653 258.526 339.81 175.684 339.81C92.8409 339.81 25.6836 272.653 25.6836 189.81C25.6836 106.968 92.8409 39.8104 175.684 39.8104ZM175.684 64.8104C106.648 64.8104 50.6836 120.775 50.6836 189.81C50.6836 258.846 106.648 314.81 175.684 314.81C244.719 314.81 300.684 258.846 300.684 189.81C300.684 120.775 244.719 64.8104 175.684 64.8104Z" fill="#062D57"/>
    <path d="M118.107 252.044H128.654L103.8 272.104L93.333 259.136L118.107 239.141V252.044Z" fill="#062D57"/>
    <path d="M264.716 129.468C266.048 129.421 267.053 130.666 266.726 131.958L258.122 165.889C257.717 167.486 255.662 167.936 254.627 166.654L246.67 156.795L175.021 214.622C176.914 209.866 177.805 204.646 177.805 199.124C177.805 196.509 177.607 193.946 177.188 191.457L236.204 143.827L228.248 133.97C227.213 132.688 228.087 130.774 229.733 130.715L264.716 129.468Z" fill="#062D57"/>
    <path d="M183.327 240.263C184.432 240.263 185.327 241.159 185.327 242.263V314.443C182.144 314.686 178.928 314.81 175.684 314.81C170.484 314.81 165.36 314.49 160.327 313.874V242.263C160.327 241.159 161.223 240.263 162.327 240.263H183.327ZM223.05 222.545C224.154 222.545 225.05 223.44 225.05 224.545V304.68C217.108 308.098 208.741 310.716 200.05 312.433V224.545C200.05 223.44 200.945 222.545 202.05 222.545H223.05ZM143.604 269.447C144.709 269.447 145.604 270.342 145.604 271.447V311.166C136.873 309.009 128.504 305.934 120.604 302.049V271.447C120.604 270.342 121.5 269.447 122.604 269.447H143.604ZM262.772 182.938C263.877 182.938 264.772 183.834 264.772 184.938V277.489C257.329 285.051 248.931 291.67 239.772 297.15V184.937C239.773 183.833 240.668 182.938 241.772 182.938H262.772Z" fill="#062D57"/>
    <path d="M137.116 23.466C137.116 16.8386 142.489 11.466 149.116 11.466H199.116C205.744 11.466 211.116 16.8386 211.116 23.466V47.466H137.116V23.466Z" fill="#062D57"/>
</svg>
