<svg width="100" height="16" viewBox="0 0 100 16" fill="none" xmlns="http://www.w3.org/2000/svg">
    <style>
        @media (prefers-color-scheme: dark) {
            path[fill="#062D57"] { fill: #FFF; }
        }
    </style>

    <path d="M27.1665 12.192C26.3145 12.192 25.5825 12.012 24.9825 11.652C24.3705 11.292 23.9025 10.776 23.5785 10.116C23.2425 9.456 23.0865 8.688 23.0865 7.8C23.0865 6.924 23.2425 6.156 23.5785 5.496C23.9025 4.836 24.3705 4.32 24.9825 3.96C25.5945 3.6 26.3265 3.408 27.1785 3.408C28.1025 3.408 28.8825 3.624 29.5065 4.056C30.1305 4.488 30.5385 5.076 30.7305 5.832H29.0265C28.8825 5.448 28.6545 5.136 28.3425 4.908C28.0185 4.68 27.6225 4.56 27.1665 4.56C26.4345 4.56 25.8585 4.848 25.4265 5.412C24.9945 5.988 24.7785 6.78 24.7785 7.8C24.7785 8.832 24.9945 9.624 25.4265 10.188C25.8585 10.764 26.4345 11.04 27.1665 11.04C27.6345 11.04 28.0305 10.932 28.3665 10.692C28.6905 10.464 28.9185 10.128 29.0625 9.696H30.7545C30.5385 10.512 30.1185 11.136 29.4945 11.556C28.8705 11.988 28.0905 12.192 27.1665 12.192ZM35.674 12.192C34.846 12.192 34.126 12.012 33.514 11.652C32.902 11.292 32.434 10.776 32.098 10.116C31.762 9.468 31.594 8.688 31.594 7.8C31.594 6.912 31.762 6.144 32.098 5.484C32.434 4.836 32.902 4.32 33.514 3.96C34.126 3.6 34.846 3.408 35.674 3.408C36.49 3.408 37.21 3.6 37.822 3.96C38.422 4.32 38.902 4.836 39.238 5.484C39.574 6.144 39.754 6.912 39.754 7.8C39.754 8.688 39.574 9.468 39.238 10.116C38.902 10.776 38.422 11.292 37.822 11.652C37.21 12.012 36.49 12.192 35.674 12.192ZM35.674 11.004C36.406 11.004 36.982 10.728 37.414 10.164C37.834 9.6 38.05 8.808 38.05 7.8C38.05 6.792 37.834 6.012 37.402 5.448C36.97 4.884 36.394 4.596 35.674 4.596C34.942 4.596 34.366 4.884 33.934 5.448C33.502 6.012 33.286 6.792 33.286 7.8C33.286 8.808 33.502 9.6 33.934 10.164C34.366 10.728 34.942 11.004 35.674 11.004ZM44.3335 12.192C43.2775 12.192 42.4375 11.976 41.8015 11.532C41.1535 11.1 40.7695 10.488 40.6495 9.696H42.3295C42.4255 10.104 42.6535 10.428 43.0135 10.668C43.3735 10.92 43.8175 11.04 44.3455 11.04C44.9215 11.04 45.3655 10.932 45.6775 10.716C45.9895 10.5 46.1455 10.2 46.1455 9.84C46.1455 9.516 46.0255 9.252 45.7855 9.036C45.5455 8.82 45.1615 8.652 44.6095 8.52L43.0855 8.136C41.6215 7.776 40.8895 6.996 40.8895 5.796C40.8895 5.304 41.0215 4.884 41.2975 4.524C41.5735 4.164 41.9575 3.888 42.4615 3.696C42.9535 3.504 43.5415 3.408 44.2135 3.408C45.1855 3.408 45.9655 3.624 46.5535 4.044C47.1295 4.464 47.4775 5.064 47.5975 5.832H45.9775C45.8815 5.436 45.6775 5.124 45.3535 4.896C45.0295 4.68 44.6335 4.56 44.1535 4.56C43.6855 4.56 43.3015 4.668 43.0015 4.86C42.6895 5.052 42.5455 5.328 42.5455 5.664C42.5455 5.964 42.6535 6.204 42.8695 6.384C43.0855 6.576 43.4455 6.72 43.9375 6.828L45.4615 7.2C46.1815 7.368 46.7455 7.656 47.1775 8.04C47.5975 8.424 47.8135 8.952 47.8135 9.6C47.8135 10.128 47.6695 10.596 47.3815 10.98C47.0935 11.364 46.6975 11.664 46.1815 11.88C45.6535 12.096 45.0415 12.192 44.3335 12.192ZM50.8456 12V4.8H48.1336V3.6H55.1656V4.8H52.4656V12H50.8456ZM57.7213 12L55.7053 3.6H57.3373L58.8733 10.632L60.6733 3.6H62.5213L64.2733 10.62L65.9413 3.6H67.5133L65.3173 12H63.2893L61.5613 5.208L59.8093 12H57.7213ZM67.3129 12L70.4329 3.6H72.7129L75.7369 12H74.0449L73.2889 9.828H69.6889L68.8969 12H67.3129ZM70.1089 8.652H72.8809L71.5249 4.752L70.1089 8.652ZM77.7518 12V4.8H75.0398V3.6H82.0718V4.8H79.3718V12H77.7518ZM86.5102 12.192C85.6582 12.192 84.9262 12.012 84.3262 11.652C83.7142 11.292 83.2462 10.776 82.9222 10.116C82.5862 9.456 82.4302 8.688 82.4302 7.8C82.4302 6.924 82.5862 6.156 82.9222 5.496C83.2462 4.836 83.7142 4.32 84.3262 3.96C84.9382 3.6 85.6702 3.408 86.5222 3.408C87.4462 3.408 88.2262 3.624 88.8502 4.056C89.4742 4.488 89.8822 5.076 90.0742 5.832H88.3702C88.2262 5.448 87.9982 5.136 87.6862 4.908C87.3622 4.68 86.9662 4.56 86.5102 4.56C85.7782 4.56 85.2022 4.848 84.7702 5.412C84.3382 5.988 84.1222 6.78 84.1222 7.8C84.1222 8.832 84.3382 9.624 84.7702 10.188C85.2022 10.764 85.7782 11.04 86.5102 11.04C86.9782 11.04 87.3742 10.932 87.7102 10.692C88.0342 10.464 88.2622 10.128 88.4062 9.696H90.0982C89.8822 10.512 89.4622 11.136 88.8382 11.556C88.2142 11.988 87.4342 12.192 86.5102 12.192ZM91.3578 12V3.6H92.9778V7.08H96.8178V3.6H98.4498V12H96.8178V8.268H92.9778V12H91.3578Z" fill="#062D57"/>
    <path d="M8.55844 1.79073C12.3455 1.79073 15.4156 4.86078 15.4156 8.64787C15.4156 12.435 12.3455 15.505 8.55844 15.505C4.77134 15.505 1.70129 12.435 1.70129 8.64787C1.70129 4.86078 4.77134 1.79073 8.55844 1.79073ZM8.55844 2.93358C5.40252 2.93358 2.84415 5.49196 2.84415 8.64787C2.84415 11.8038 5.40252 14.3622 8.55844 14.3622C11.7143 14.3622 14.2727 11.8038 14.2727 8.64787C14.2727 5.49196 11.7143 2.93358 8.55844 2.93358Z" fill="#062D57"/>
    <path d="M7.04517 4.60241V5.35632C7.40534 5.42026 7.69135 5.58528 7.89771 5.85437L7.97485 5.96374C8.14231 6.22984 8.2229 6.56618 8.2229 6.96765V7.03601H7.42993V6.96765C7.42993 6.67455 7.36205 6.44487 7.23267 6.27234V6.27136C7.10832 6.10298 6.93518 6.0185 6.70532 6.01843C6.45339 6.01843 6.27681 6.08468 6.16235 6.20495H6.16138C6.04517 6.32516 5.98369 6.49389 5.98364 6.7196C5.98364 6.81974 5.99826 6.90822 6.02759 6.98523L6.06177 7.05847C6.10884 7.14493 6.19713 7.23249 6.33325 7.31823C6.46891 7.40366 6.64869 7.48534 6.87427 7.56237H6.87329C7.17854 7.65962 7.43557 7.77452 7.64282 7.90808C7.84937 8.04268 8.0071 8.20446 8.11157 8.39441C8.21646 8.5852 8.26685 8.8131 8.26685 9.07409C8.26676 9.47246 8.14684 9.79707 7.90161 10.0399C7.67039 10.2688 7.35947 10.4053 6.97485 10.4559V11.1044H6.3147V10.455C6.07288 10.4228 5.85712 10.3533 5.66919 10.2411V10.2401C5.4593 10.1196 5.29594 9.949 5.18091 9.72839C5.06495 9.50593 5.01131 9.23483 5.01587 8.91882V8.90612L5.02075 8.89441L5.02759 8.8778L5.04517 8.83386H5.79614V8.90319C5.79618 9.12339 5.83499 9.2949 5.90747 9.42175L5.96606 9.51159C6.02925 9.59475 6.10674 9.65736 6.19849 9.70105H6.19751C6.32359 9.75892 6.46573 9.78889 6.62427 9.78894C6.81145 9.78894 6.96567 9.7582 7.08813 9.70105C7.21844 9.64106 7.31308 9.56043 7.37524 9.45984C7.43754 9.35897 7.46997 9.23295 7.46997 9.07995C7.46991 8.95741 7.44239 8.84935 7.38892 8.75378L7.34106 8.68347C7.21282 8.52329 6.97037 8.37759 6.59888 8.25183V8.25085C6.3738 8.18134 6.17346 8.10079 5.99829 8.00866L5.8313 7.91296C5.62014 7.77838 5.45883 7.61397 5.34985 7.4198H5.34888C5.23963 7.22268 5.18682 6.99181 5.18677 6.73034C5.18677 6.34806 5.29719 6.02998 5.52271 5.78308C5.73577 5.54983 6.02271 5.40714 6.37817 5.35144V4.60241H7.04517Z" fill="#008000" stroke="#008000" stroke-width="0.137143"/>
    <path d="M5.92637 11.4928H6.40851L5.27231 12.4099L4.79382 11.817L5.92637 10.903V11.4928Z" fill="#062D57"/>
    <path d="M12.6285 5.88937C12.6894 5.88719 12.7353 5.94412 12.7203 6.0032L12.327 7.55432C12.3085 7.62735 12.2146 7.6479 12.1673 7.58928L11.8035 7.13861L8.52811 9.78213C8.61468 9.56472 8.65539 9.32607 8.65539 9.07365C8.65538 8.95408 8.64634 8.83691 8.62717 8.72316L11.3251 6.54579L10.9614 6.09517C10.9141 6.03654 10.954 5.94906 11.0293 5.94637L12.6285 5.88937Z" fill="#062D57"/>
    <path d="M8.90785 10.9543C8.95834 10.9543 8.99928 10.9952 8.99928 11.0457V14.3454C8.85378 14.3565 8.70677 14.3622 8.55843 14.3622C8.32075 14.3622 8.08648 14.3475 7.85642 14.3193V11.0457C7.85642 10.9952 7.89735 10.9543 7.94785 10.9543H8.90785ZM10.7237 10.1443C10.7742 10.1443 10.8152 10.1852 10.8152 10.2357V13.8991C10.4521 14.0553 10.0696 14.175 9.67231 14.2535V10.2357C9.67231 10.1852 9.71325 10.1443 9.76374 10.1443H10.7237ZM7.09196 12.2884C7.14245 12.2884 7.18338 12.3293 7.18338 12.3798V14.1955C6.78424 14.0969 6.40166 13.9564 6.04053 13.7788V12.3798C6.04053 12.3293 6.08146 12.2884 6.13196 12.2884H7.09196ZM12.5396 8.33371C12.5901 8.33372 12.6311 8.37465 12.6311 8.42514V12.656C12.2908 13.0017 11.9069 13.3043 11.4882 13.5548V8.4251C11.4882 8.37461 11.5291 8.33371 11.5796 8.33371H12.5396Z" fill="#062D57"/>
    <path d="M6.79541 1.04356C6.79541 0.74059 7.04101 0.494986 7.34398 0.494986H9.6297C9.93266 0.494986 10.1783 0.740589 10.1783 1.04356V2.1407H6.79541V1.04356Z" fill="#062D57"/>
</svg>
